HIERARCHY
ROOT hip
{
  OFFSET 0 0 0
  CHANNELS 6 Xposition Yposition Zposition Zrotation Yrotation Xrotation
  JOINT abdomen
  {
    OFFSET 0 20.6881 -0.73152
    CHANNELS 3 Zrotation Xrotation Yrotation
    JOINT chest
    {
      OFFSET 0 11.7043 -0.48768
      CHANNELS 3 Zrotation Xrotation Yrotation
      JOINT neck
      {
        OFFSET 0 22.1894 -2.19456
        CHANNELS 3 Zrotation Xrotation Yrotation
        JOINT head
        {
          OFFSET -0.24384 7.07133 1.2192
          CHANNELS 3 Zrotation Xrotation Yrotation
          JOINT leftEye
          {
            OFFSET 4.14528 8.04674 8.04672
            CHANNELS 3 Zrotation Xrotation Yrotation
            End Site
            {
              OFFSET 1 0 0
            }
          }
          JOINT rightEye
          {
            OFFSET -3.6576 8.04674 8.04672
            CHANNELS 3 Zrotation Xrotation Yrotation
            End Site
            {
              OFFSET 1 0 0
            }
          }
        }
      }
      JOINT rCollar
      {
        OFFSET -2.68224 19.2634 -4.8768
        CHANNELS 3 Zrotation Xrotation Yrotation
        JOINT rShldr
        {
          OFFSET -8.77824 -1.95073 1.46304
          CHANNELS 3 Zrotation Xrotation Yrotation
          JOINT rForeArm
          {
            OFFSET -28.1742 -1.7115 0.48768
            CHANNELS 3 Zrotation Xrotation Yrotation
            JOINT rHand
            {
              OFFSET -22.5879 0.773209 7.07136
              CHANNELS 3 Zrotation Xrotation Yrotation
              JOINT rThumb1
              {
                OFFSET -1.2192 -0.487915 3.41376
                CHANNELS 3 Zrotation Xrotation Yrotation
                JOINT rThumb2
                {
                  OFFSET -3.37035 -0.52449 3.41376
                  CHANNELS 3 Zrotation Xrotation Yrotation
                  End Site
                  {
                    OFFSET -1.78271 -1.18214 1.43049
                  }
                }
              }
              JOINT rIndex1
              {
                OFFSET -7.75947 0.938293 5.60832
                CHANNELS 3 Zrotation Xrotation Yrotation
                JOINT rIndex2
                {
                  OFFSET -2.54057 -0.884171 1.56538
                  CHANNELS 3 Zrotation Xrotation Yrotation
                  End Site
                  {
                    OFFSET -1.62519 -0.234802 1.16502
                  }
                }
              }
              JOINT rMid1
              {
                OFFSET -8.24714 1.18213 3.41376
                CHANNELS 3 Zrotation Xrotation Yrotation
                JOINT rMid2
                {
                  OFFSET -3.10165 -0.590103 1.0647
                  CHANNELS 3 Zrotation Xrotation Yrotation
                  End Site
                  {
                    OFFSET -2.48547 -0.328903 0.83742
                  }
                }
              }
              JOINT rRing1
              {
                OFFSET -8.82822 0.546677 1.51678
                CHANNELS 3 Zrotation Xrotation Yrotation
                JOINT rRing2
                {
                  OFFSET -2.60934 -0.819778 -0.0198488
                  CHANNELS 3 Zrotation Xrotation Yrotation
                  End Site
                  {
                    OFFSET -2.33842 -0.294052 0.168128
                  }
                }
              }
              JOINT rPinky1
              {
                OFFSET -8.27202 -0.0477905 -0.4584
                CHANNELS 3 Zrotation Xrotation Yrotation
                JOINT rPinky2
                {
                  OFFSET -1.82734 -0.647385 -0.700984
                  CHANNELS 3 Zrotation Xrotation Yrotation
                  End Site
                  {
                    OFFSET -1.69225 -0.51767 -0.607171
                  }
                }
              }
            }
          }
        }
      }
      JOINT lCollar
      {
        OFFSET 2.68224 19.2634 -4.8768
        CHANNELS 3 Zrotation Xrotation Yrotation
        JOINT lShldr
        {
          OFFSET 8.77824 -1.95073 1.46304
          CHANNELS 3 Zrotation Xrotation Yrotation
          JOINT lForeArm
          {
            OFFSET 28.1742 -1.7115 0.48768
            CHANNELS 3 Zrotation Xrotation Yrotation
            JOINT lHand
            {
              OFFSET 22.5879 0.773209 7.07136
              CHANNELS 3 Zrotation Xrotation Yrotation
              JOINT lThumb1
              {
                OFFSET 1.2192 -0.487915 3.41376
                CHANNELS 3 Zrotation Xrotation Yrotation
                JOINT lThumb2
                {
                  OFFSET 3.37035 -0.52449 3.41376
                  CHANNELS 3 Zrotation Xrotation Yrotation
                  End Site
                  {
                    OFFSET 1.78271 -1.18214 1.43049
                  }
                }
              }
              JOINT lIndex1
              {
                OFFSET 7.75947 0.938293 5.60832
                CHANNELS 3 Zrotation Xrotation Yrotation
                JOINT lIndex2
                {
                  OFFSET 2.54057 -0.884171 1.56538
                  CHANNELS 3 Zrotation Xrotation Yrotation
                  End Site
                  {
                    OFFSET 1.62519 -0.234802 1.16502
                  }
                }
              }
              JOINT lMid1
              {
                OFFSET 8.24714 1.18213 3.41376
                CHANNELS 3 Zrotation Xrotation Yrotation
                JOINT lMid2
                {
                  OFFSET 3.10165 -0.590103 1.0647
                  CHANNELS 3 Zrotation Xrotation Yrotation
                  End Site
                  {
                    OFFSET 2.48547 -0.328903 0.83742
                  }
                }
              }
              JOINT lRing1
              {
                OFFSET 8.82822 0.546677 1.51678
                CHANNELS 3 Zrotation Xrotation Yrotation
                JOINT lRing2
                {
                  OFFSET 2.60934 -0.819778 -0.0198488
                  CHANNELS 3 Zrotation Xrotation Yrotation
                  End Site
                  {
                    OFFSET 2.33842 -0.294052 0.168128
                  }
                }
              }
              JOINT lPinky1
              {
                OFFSET 8.27202 -0.0477905 -0.4584
                CHANNELS 3 Zrotation Xrotation Yrotation
                JOINT lPinky2
                {
                  OFFSET 1.82734 -0.647385 -0.700984
                  CHANNELS 3 Zrotation Xrotation Yrotation
                  End Site
                  {
                    OFFSET 1.69225 -0.51767 -0.607171
                  }
                }
              }
            }
          }
        }
      }
    }
  }
  JOINT rButtock
  {
    OFFSET -8.77824 4.35084 1.2192
    CHANNELS 3 Zrotation Xrotation Yrotation
    JOINT rThigh
    {
      OFFSET 0 -1.70687 -2.19456
      CHANNELS 3 Zrotation Xrotation Yrotation
      JOINT rShin
      {
        OFFSET 0 -36.8199 0.73152
        CHANNELS 3 Zrotation Xrotation Yrotation
        JOINT rFoot
        {
          OFFSET 0.73152 -45.1104 -5.12064
          CHANNELS 3 Zrotation Xrotation Yrotation
          End Site
          {
            OFFSET -1.1221 -3.69964 12.103
          }
        }
      }
    }
  }
  JOINT lButtock
  {
    OFFSET 8.77824 4.35084 1.2192
    CHANNELS 3 Zrotation Xrotation Yrotation
    JOINT lThigh
    {
      OFFSET 0 -1.70687 -2.19456
      CHANNELS 3 Zrotation Xrotation Yrotation
      JOINT lShin
      {
        OFFSET 0 -36.8199 0.73152
        CHANNELS 3 Zrotation Xrotation Yrotation
        JOINT lFoot
        {
          OFFSET -0.73152 -45.1104 -5.12064
          CHANNELS 3 Zrotation Xrotation Yrotation
          End Site
          {
            OFFSET 1.1221 -3.69964 12.103
          }
        }
      }
    }
  }
}
MOTION
Frames:	8
Frame Time:	0.00833333
28.6219 83.51089999999999 -13.6344 -150.960504 -77.804231 158.384404 12.794323 -0.321979 0.615256 -4.159257 -10.276733 24.488071 5.37309 30.840807 106.693563 -42.151082 19.756003 -137.322139 -0.00245 -0.0 0.004962 0.001344 -0.0 -0.003951 -14.148412 43.06156 15.996462 -73.55187 11.347343 104.591658 -152.886719 -30.991246 -102.72042 -1.917521 3.883789 -0.420626 -178.519063 -16.064346 89.475971 -9.623858 -51.6695 0.703722 -0.044625 0.071386 0.025303 165.789639 -47.987193 97.624616 1.281372 -3.803086 -0.67998 -172.085594 -31.342665 144.105453 -145.122123 1.974467 -179.7488 11.968514 40.331907 -4.404466 16.521332 57.858569 12.543135 1.624164 0.259704 -0.458873 157.796582 -22.115521 -165.467291 75.421936 14.642995 -11.770858 -22.085538 -77.740952 82.499669 -154.626488 -37.22475 -138.69585 -11.510014 -11.486684 0.621967 2.346321 -1.422499 6.053688 -73.42089 -73.570721 -26.564906 -17.380088 -1.051948 5.97098 166.119202 -24.039571 -145.078437 -2.31706 2.41934 -0.688282 145.118776 0.185383 179.186623 -10.213792 -0.029017 9.000092 -40.004323 85.640955 0.918327 -1.215671 -0.413658 1.167923 0.001953 -5e-05 0.000977 6.998834 -19.309712 20.367602 17.335769 32.193176 -123.47317 65.996878 35.922207 35.083434 179.744449 75.749213 0.196964 -172.545148 32.285857 166.235142 -18.459813 -61.873492 -140.907244 -66.54098 32.630827 -19.772024
30.1455 83.3221 -13.9088 -138.775682 -79.854992 146.249019 10.827571 -2.655861 85.648219 -8.330562 0.425787 -60.872852 3.132124 23.819735 63.007366 -36.977285 -10.571847 -105.472425 0.000216 -0.0 -5.1e-05 -9.6e-05 -0.0 0.002194 0.483042 -3.000759 -0.653499 -104.687945 -21.423905 153.096011 5.69804 -6.999716 -100.889287 170.184155 -20.660618 143.126872 83.253448 -50.257753 33.616886 -33.57252 8.397413 -6.300323 168.920471 -66.169465 109.490246 -175.242579 -44.158395 112.379602 -8.416639 20.880555 5.644461 -42.025512 58.555871 36.138489 -0.001249 -0.061106 -0.017394 -80.831209 78.719305 94.269091 26.97774 80.122384 10.133388 -4.62377 -13.935855 -6.059702 85.537131 68.182354 -88.688988 54.645468 9.342132 -114.140983 -30.518452 -24.23803 89.06455 -164.666566 -17.655704 -145.938193 -11.50845 -11.487355 0.622247 -17.684279 -44.036004 23.151339 108.427859 34.160663 -91.742567 169.038265 -19.572997 -116.070841 160.098194 -4.900655 -142.970723 164.037479 -7.047722 -143.190009 -0.00064 -0.061029 0.017944 155.844476 -8.256437 -172.845305 152.875701 39.992493 148.05688 -2.754881 2.460711 1.125039 -179.992019 75.748532 -0.005461 -166.501928 52.461254 -152.456781 -33.593566 -13.196174 -160.893909 176.129068 36.674646 104.400458 0.001989 -0.000647 0.000497 8.798542 -40.138259 30.976818 44.905978 44.974803 -75.962069 31.33794 3.872879 13.660445
31.5687 83.1005 -14.022699999999999 -124.172179 -81.652061 131.477307 10.787909 -3.787402 107.729179 -6.876603 2.802998 -83.025285 -15.544636 34.972122 -104.026823 46.20438 22.330408 56.699817 -0.000605 0.0 -0.000282 -0.000605 0.0 -0.000282 0.163155 -0.99004 -0.218553 -90.974992 6.986715 150.564146 14.884806 21.438479 -106.618492 173.166562 -12.152018 144.113911 -93.74422 37.963757 53.548104 4.773627 -20.779455 24.916793 -148.885405 -12.609754 120.245295 -9.610756 33.049498 0.967383 68.986792 -80.152992 40.580496 -11.911345 33.665219 9.44083 -145.100594 -1.521153 -178.65025 12.256666 44.867365 -3.842141 -0.342836 -0.890782 -0.317025 -24.232955 -41.353933 -24.932063 -0.162962 -0.990104 0.218112 -89.046411 12.589657 29.612334 -162.047292 54.38959 -94.628078 -160.244175 -27.698596 -142.896508 -6.463765 -6.452633 0.63562 133.776717 -30.67804 -119.462512 -60.461129 -70.523881 -15.710945 152.946212 -9.101945 -114.96049 169.090675 -33.247302 -145.374434 175.595684 -39.348636 -142.87774 145.099162 -1.550048 178.642606 76.033341 -77.984316 97.691216 -9.028744 28.891095 -7.892806 129.184007 -29.124982 126.921433 179.996666 75.748905 0.00344 -166.457523 53.637657 -16.652098 6.681606 40.45533 -147.343904 144.811841 -50.775825 -133.56123 -0.000841 0.000438 0.001082 9.996492 -38.643358 6.437127 39.665149 65.082803 71.364759 -60.241089 -52.491087 -155.025724
32.8711 82.97200000000001 -14.0445 -105.540397 -82.980989 112.527912 10.238607 -4.048393 107.256208 -7.038627 2.168301 -82.645557 6.883089 34.978042 122.574418 -39.437048 33.22968 -154.711969 0.000325 0.0 0.000872 0.000801 -0.0 -0.001239 -147.605651 29.261138 152.403164 126.579108 -9.500653 169.037252 80.85959 -1.017494 75.425248 -128.248731 70.086684 106.582229 -171.705725 -9.388663 89.948237 -91.009546 10.727915 35.010444 -155.193249 -24.299828 122.143395 22.256017 -21.485656 -10.752892 -8.416805 20.880431 5.645037 15.881442 -37.073323 -0.852629 -145.111797 -0.66867 -178.917979 -156.205312 63.714612 172.353792 -75.779938 -51.668708 -74.248944 -153.931856 37.041351 -147.289757 82.87744 68.299487 -86.000659 -74.602234 9.472864 -60.958097 79.693424 -4.317408 12.739812 -20.523053 -35.964352 -14.035113 174.086689 -11.754134 -89.876097 77.892021 6.895295 -25.308174 -10.210684 -18.050856 4.564565 4.977899 23.539567 -6.394265 160.826642 -7.14164 -143.316695 -18.261531 -42.034188 -0.334395 145.119547 0.310916 179.224065 141.832234 -56.542454 163.973268 25.539245 -38.086917 24.599076 23.844705 -41.273762 25.369105 179.684463 75.749429 0.243199 -167.185254 50.638392 163.605994 -4.831534 -31.954353 149.929714 -39.334372 -14.123051 -9.29611 0.000481 0.000293 -0.0 9.985703 -36.781024 16.386397 53.997991 64.542968 106.512773 5.897536 24.76541 -160.860104
34.1023 82.9615 -14.0543 -84.701947 -83.393976 91.546119 11.916521 -1.300189 0.778038 -1.818961 -10.32311 23.800179 8.955752 31.547975 98.622596 -43.864395 18.572603 -137.450117 0.000894 0.0 0.004007 -0.000962 0.0 -0.001108 3.269319 -26.75577 -5.241884 74.678485 13.471862 3.836848 93.64577 0.764174 69.663749 -151.09147 60.676883 127.257968 -176.597894 -14.213337 89.690759 -152.859032 5.382126 81.318918 159.643253 -69.973653 102.398493 4.111696 20.271625 -2.853519 -164.183956 -17.817419 144.60339 -166.259532 -13.652547 143.671952 -145.118556 0.267883 -179.212248 -154.176127 -12.523548 -177.503018 -26.562747 -38.861537 -25.605135 3.959938 2.07887 0.314148 83.951683 68.258071 -87.085694 -83.906109 3.706097 -58.54847 124.726062 73.374791 -26.527779 -143.65558 -49.688713 -129.25966 171.603394 -9.286277 -89.949753 156.217536 1.624596 -81.631795 173.762584 -52.872749 -119.825689 163.714102 -26.641568 -118.130947 36.036896 51.722327 -29.833948 163.163632 -4.970705 -143.278582 0.009459 3.559023 -1.119672 -10.024643 0.291606 0.036752 -44.747339 86.377068 5.379289 138.585089 -13.460098 134.53865 -0.002041 -0.00035 -0.00102 8.806467 -22.655928 10.304403 25.418919 29.895129 79.252076 -119.672669 -23.162107 -174.677498 -179.995884 75.749992 -0.003768 -167.855034 38.387966 -130.032684 -74.595626 -17.849709 -140.824785 -165.182978 7.574163 110.912189
35.3707 82.9484 -14.0512 -66.126715 -82.884044 73.129731 11.71308 -1.73008 -0.0 -1.254853 -10.211756 24.587688 -13.441965 34.173309 -88.259925 48.020475 7.583678 40.943006 0.003263 0.0 0.001261 -0.002133 -0.0 0.002792 -143.619929 38.232946 148.0796 68.244344 -72.171074 120.753668 -0.372795 -74.351856 67.908235 -7.854388 21.581322 0.467156 174.055774 -22.871666 88.063561 21.091254 -70.512928 12.878822 -129.577678 16.761441 108.78567 -174.391021 -32.453218 116.503352 2.099876 -6.305492 -1.080986 -4.973631 21.317302 4.40987 -145.062591 -3.30772 -178.087373 -133.938178 -64.912111 -156.176594 -23.392652 -36.349083 -22.493394 11.382854 26.564648 5.943186 157.88004 -65.637856 -175.445242 69.049979 -10.819884 29.535529 145.505459 62.244705 140.024942 4.844142 32.862622 -2.995262 68.48209 37.954272 -35.659627 -66.475443 -47.038749 -21.826876 27.1729 30.468293 -19.890642 169.110469 -19.433709 -110.680358 10.974706 25.790136 -7.639784 -3.183004 0.421277 -0.051 0.000461 0.063638 -0.021392 -9.294817 12.09698 -1.569333 -12.986443 44.344526 -10.763185 -0.766655 -2.497035 1.116004 -0.005628 -0.000581 -0.002814 9.359978 -25.742861 -169.516552 -25.430417 -30.686506 -113.925516 -74.606281 -23.164341 -144.053354 -179.998679 75.750076 -0.0 -169.35202 41.809991 63.985948 76.326279 7.192942 64.20258 118.500349 50.093483 155.781874
36.615199999999994 82.8604 -13.969899999999999 -52.572978 -81.657056 59.689975 9.793784 -4.201925 76.436368 -7.636046 -3.194682 -52.539062 -12.062708 28.431748 -53.395008 39.291829 -17.165387 13.91985 0.006022 0.0 0.004468 0.000632 0.0 0.005987 -147.802061 28.731439 152.619664 174.362924 74.82625 129.549164 25.75801 79.411701 50.524663 -10.277432 26.651307 1.137987 -176.598825 -14.212847 89.691808 -30.764037 -31.549383 0.795278 88.792 -75.499381 40.050119 107.956246 -67.370603 48.703844 -160.827061 -7.14158 143.316653 -153.95776 19.919685 138.341642 -0.014583 -1.323202 -0.415555 -1.765533 56.468207 14.362683 -0.344541 -0.890238 -0.318412 3.264381 2.159224 0.661495 157.677202 -66.55928 -175.833568 -98.191579 43.309411 146.087364 -0.949388 -35.187657 -68.748195 8.61569 42.934257 -4.073738 -176.505812 -20.695125 -88.628564 -136.491235 -60.626669 -101.323963 -0.184047 -0.300597 0.104051 168.224644 -22.978657 -109.313283 160.827338 -7.141424 -143.317059 -92.055525 -78.192492 -63.067798 -0.003208 0.917523 -0.288337 -11.498776 -36.417465 4.389316 -39.990172 85.641195 0.90167 13.44153 -28.245211 14.139511 -179.998249 75.749354 -0.001198 -167.366842 50.27398 -0.0 13.275319 31.297183 -88.301148 102.934128 6.967716 9.126932 179.996361 75.749354 0.002994 -166.424002 42.258959 -180.0 -28.25772 -66.972765 59.085475 11.23686 28.548551 81.458293
37.851600000000005 82.79419999999999 -13.8686 -44.958969 -79.975035 52.124049 12.849637 -3.1791 1.26845 -0.958951 -9.681713 22.69298 -12.13598 36.860026 -101.510137 48.52657 15.452746 48.848662 0.004138 0.0 0.004984 0.0023 -0.0 -0.000212 -158.514028 -30.702099 167.038782 171.852304 -16.04781 -131.807624 135.773189 58.979292 114.543154 178.948569 2.522763 144.209826 -171.603385 -9.286093 89.951012 -128.133528 12.391106 62.282137 -138.492422 4.896521 114.865657 6.402258 5.060684 -8.415561 -36.037752 51.722424 29.833184 -162.754907 -3.729807 143.142051 -0.014419 -1.323022 -0.416729 -155.816642 -9.674693 173.011785 7.926287 24.812123 7.001123 1.784298 -0.629081 -0.291099 -3.20665 -26.010377 5.105202 -23.984982 -21.769102 65.005264 -98.880184 -0.884128 -60.865384 177.054332 38.757622 -150.276475 159.653061 2.600776 -88.800001 -51.74663 -61.513736 -40.931831 129.576772 16.761303 -108.78593 -45.063441 -54.795792 -3.192236 0.219575 0.638362 -0.123842 163.987757 -6.976328 -143.571841 74.840842 72.961907 -92.827629 -5.864168 0.513433 4.473798 131.401195 -19.914904 128.959504 -1.809647 -2.804948 2.67941 179.992626 75.74891 0.005046 -166.293761 48.421578 -75.087418 -20.076495 28.464583 123.195628 -98.084206 -54.16006 -166.758594 -0.002484 0.000732 -0.001242 12.468745 -27.429132 -0.0 18.6951 62.311038 31.019708 -170.248967 -28.399732 42.00054
